<svg width="36" height="36" viewBox="0 0 36 36" fill="none" xmlns="http://www.w3.org/2000/svg">
<g opacity="0.3" clip-path="url(#clip0_2559_9856)">
<path d="M18.0051 35.9999C8.00228 36.0051 -0.00514038 27.9834 2.4759e-06 17.982C0.00514533 7.98568 8.04343 -0.02059 18.0411 -2.14931e-05C28.0029 0.020547 35.9897 8.01139 36 17.9717C36.0103 27.9782 28.008 35.9999 18.0051 35.9999ZM26.604 11.8783C26.64 11.1378 26.5166 10.5053 25.6063 10.5156C25.2 10.5207 24.7783 10.6904 24.3874 10.8498C19.6149 12.809 14.8474 14.7784 10.08 16.753C9.02571 17.1901 7.97657 17.6426 6.93257 18.1105C6.60343 18.2596 6.28457 18.4602 6.28971 18.8921C6.28971 19.3549 6.66 19.4783 6.99943 19.5914C8.05371 19.9411 9.09772 20.3268 10.1726 20.589C11.1394 20.8204 12.0651 20.7484 12.9651 20.1159C15.2897 18.4807 17.6709 16.9175 20.0417 15.3543C20.4789 15.0664 21.1011 14.4236 21.4766 14.8761C21.852 15.3235 21.1114 15.8017 20.736 16.1668C19.044 17.8071 17.3366 19.4269 15.624 21.0467C15.0583 21.5866 14.868 22.1882 15.5417 22.7127C17.6297 24.3376 19.7691 25.906 22.14 27.0989C23.3897 27.7263 24.1303 27.284 24.3771 25.8957C24.7011 24.0651 24.9891 22.2293 25.2771 20.3936C25.7349 17.5552 26.1669 14.7167 26.604 11.8783Z" fill="#111111"/>
</g>
<defs>
<clipPath id="clip0_2559_9856">
<rect width="36" height="36" fill="white"/>
</clipPath>
</defs>
</svg>
