<svg width="36" height="36" viewBox="0 0 36 36" fill="none" xmlns="http://www.w3.org/2000/svg">
<g opacity="0.3" clip-path="url(#clip0_2559_9857)">
<path d="M18.7298 36C18.2052 36 17.6807 36 17.1561 36C17.1355 35.9949 17.115 35.9846 17.0893 35.9846C16.5338 35.9331 15.9733 35.9023 15.423 35.8303C14.3636 35.6914 13.3299 35.4395 12.3168 35.1001C9.52431 34.159 7.10724 32.6214 5.06043 30.4923C3.7799 29.1656 2.73078 27.6691 1.90795 26.0183C1.25482 24.7121 0.771408 23.3442 0.452559 21.9197C0.200566 20.7884 0.0514272 19.6467 0.0308563 18.4845C0.0205709 18.3303 0.0102854 18.1708 0 18.0166C0 17.9754 0 17.9394 0 17.8983C0.00514272 17.8571 0.0154282 17.816 0.0154282 17.7749C0.0257136 17.5023 0.0257136 17.2349 0.0411417 16.9623C0.0822835 16.0778 0.200566 15.1985 0.380561 14.3345C0.709695 12.7506 1.24454 11.2387 1.97995 9.7988C2.92106 7.96806 4.13475 6.34302 5.63128 4.93396C7.60608 3.06722 9.88945 1.69931 12.4762 0.86622C14.3533 0.254258 16.2767 -0.0285808 18.2464 0.00227437C19.352 0.017702 20.4474 0.13598 21.5326 0.351967C23.0702 0.660518 24.541 1.15934 25.9502 1.85359C27.8221 2.77924 29.4883 3.99288 30.9437 5.4945C32.3117 6.90355 33.4225 8.49259 34.2659 10.2668C35.1865 12.2004 35.747 14.2317 35.9322 16.3658C36.0042 17.1783 36.0145 17.996 35.9836 18.8137C35.9476 19.657 35.8499 20.4953 35.6905 21.3232C35.3665 23.0408 34.8059 24.6813 33.9985 26.2292C32.7385 28.6667 31.0157 30.7135 28.8301 32.3694C26.8553 33.8658 24.6645 34.9046 22.2577 35.4909C21.2806 35.7274 20.2932 35.8869 19.2903 35.9486C19.1052 35.964 18.9149 35.9846 18.7298 36ZM13.8236 11.6912C13.9522 11.7427 14.0705 11.8095 14.199 11.8455C14.7236 11.9895 15.0322 12.3444 15.1813 12.8586C15.3613 13.4911 15.4076 14.1391 15.4024 14.7871C15.3973 15.3579 15.3716 15.9338 15.3099 16.4995C15.279 16.8184 15.1813 17.1372 15.0784 17.4406C14.9756 17.7492 14.7133 17.888 14.4253 17.8211C14.2916 17.7903 14.163 17.7132 14.0396 17.6412C13.7259 17.4509 13.5253 17.1475 13.3094 16.8544C12.2294 15.3682 11.3654 13.7534 10.6609 12.0615C10.45 11.5575 10.1517 11.3518 9.61174 11.3518C8.50091 11.3518 7.38494 11.3518 6.27412 11.3518C6.19183 11.3518 6.10441 11.3518 6.02212 11.3724C5.52328 11.4907 5.35357 11.7272 5.55928 12.2106C6.57754 14.5865 7.75522 16.8801 9.12832 19.0656C10.0592 20.5518 11.1288 21.9197 12.4659 23.0614C13.3608 23.8225 14.3585 24.383 15.4899 24.707C16.1276 24.887 16.7755 24.995 17.4338 25.0567C18.0201 25.1081 18.6115 25.1493 19.2029 25.103C19.6812 25.0618 19.964 24.8201 20.0566 24.3522C20.0823 24.2185 20.0875 24.0745 20.0977 23.9356C20.1235 23.6631 20.1337 23.3905 20.1697 23.118C20.2212 22.7425 20.3497 22.3929 20.576 22.0843C20.8743 21.678 21.3011 21.6112 21.7074 21.9043C21.8463 22.0072 21.9903 22.11 22.1137 22.2334C22.7154 22.8403 23.3222 23.4419 23.9034 24.0693C24.4382 24.6504 25.0708 25.0053 25.8524 25.1081C26.5159 25.1955 27.1793 25.139 27.8427 25.1493C28.4084 25.1544 28.9689 25.1595 29.5346 25.1698C29.9615 25.175 30.3472 24.9744 30.4912 24.5322C30.5889 24.2339 30.5272 23.9562 30.3935 23.6785C30.2032 23.2825 29.9306 22.9483 29.6375 22.6294C28.9329 21.8632 28.2284 21.1021 27.5187 20.341C27.2821 20.089 27.0198 19.8576 26.7781 19.6005C26.413 19.2148 26.3616 18.8445 26.593 18.3714C26.6598 18.2377 26.737 18.104 26.8244 17.9857C27.6627 16.8184 28.5061 15.651 29.3392 14.4785C29.6632 14.0208 30.0129 13.5786 30.2392 13.0592C30.3883 12.7146 30.5735 12.3906 30.5889 11.9998C30.594 11.8507 30.5683 11.717 30.4346 11.6501C30.1466 11.5113 29.8483 11.3827 29.5243 11.3673C29.0409 11.3467 28.5524 11.3416 28.0638 11.3416C27.2358 11.3416 26.4027 11.3518 25.5747 11.3467C25.1582 11.3467 24.865 11.5215 24.6902 11.897C24.5925 12.1027 24.4999 12.3135 24.4073 12.5192C23.7491 13.9745 23.0651 15.4144 22.1034 16.7001C21.8411 17.0498 21.5737 17.384 21.2343 17.6566C20.9771 17.8623 20.7046 17.8417 20.4629 17.6154C20.2006 17.3686 20.0875 17.0652 20.0875 16.7104C20.0875 15.2499 20.0875 13.7894 20.0926 12.3289C20.0926 12.2004 20.0926 12.0718 20.0875 11.9432C20.0566 11.2901 19.6555 10.8993 19.0023 10.889C18.3081 10.8787 17.6138 10.8736 16.9195 10.8633C16.5493 10.8582 16.179 10.8479 15.8087 10.8479C15.4796 10.853 15.1453 10.8479 14.8162 10.889C14.3379 10.9713 14.0242 11.2541 13.8236 11.6912Z" fill="#111111"/>
</g>
<defs>
<clipPath id="clip0_2559_9857">
<rect width="36" height="36" fill="white"/>
</clipPath>
</defs>
</svg>
