<svg width="122" height="42" viewBox="0 0 122 42" fill="none"
     xmlns="http://www.w3.org/2000/svg">
  <g clip-path="url(#clip0_6389_12905)">
    <path fill-rule="evenodd" clip-rule="evenodd"
          d="M9.54769 1.41346C6.33915 1.41346 4.53277 1.90439 3.33979 2.95405C2.10379 4.04175 1.49992 5.78718 1.49992 8.77995V33.1074C1.49992 36.1202 2.0986 37.9309 3.3217 39.0999C4.54619 40.2703 6.4192 40.8365 9.54536 40.8365H113.335C116.439 40.8365 118.234 40.2594 119.347 39.0807C120.417 37.9461 120.919 36.2091 120.919 33.1074V8.77769C120.919 5.66289 120.416 4.03084 119.332 2.97256C118.249 1.91575 116.516 1.41346 113.337 1.41346H9.54769ZM2.79006 2.37117C4.21631 1.11627 6.28629 0.625 9.54769 0.625H113.337C116.563 0.625 118.588 1.12518 119.912 2.41799C121.235 3.70933 121.735 5.61859 121.735 8.77769V33.1074C121.735 36.2568 121.234 38.2504 119.95 39.6118L119.95 39.612C118.602 41.0397 116.512 41.625 113.335 41.625H9.54536C6.34152 41.625 4.20056 41.0491 2.74751 39.6604C1.29307 38.2702 0.683594 36.1972 0.683594 33.1074V8.77995C0.683594 5.71282 1.29718 3.68492 2.79003 2.3712L2.79006 2.37117Z"
          fill="black"></path>
    <path fill-rule="evenodd" clip-rule="evenodd"
          d="M25.9922 17.5216L12.3281 9.92871L23.1211 20.3004L25.9922 17.5216Z"
          fill="black"></path>
    <path fill-rule="evenodd" clip-rule="evenodd"
          d="M11.0859 10.0071C11.0307 10.1028 11.0018 10.2106 11.002 10.3202V31.808C11.0024 31.8726 11.0126 31.9367 11.0323 31.9984L22.4608 20.9385L11.0859 10.0071Z"
          fill="black"></path>
    <path fill-rule="evenodd" clip-rule="evenodd"
          d="M23.1218 21.5759L11.916 32.4173C11.9492 32.4047 11.9816 32.39 12.0128 32.3733L26.1725 24.5045L23.1218 21.5759Z"
          fill="black"></path>
    <path fill-rule="evenodd" clip-rule="evenodd"
          d="M31.3482 20.498L26.8293 17.9873L23.7832 20.9362L27.0123 24.0382L31.3482 21.6289C31.4511 21.5717 31.5367 21.4894 31.5962 21.3901C31.6556 21.2908 31.687 21.1781 31.687 21.0634C31.687 20.9487 31.6556 20.8361 31.5962 20.7368C31.5367 20.6375 31.4511 20.5551 31.3482 20.498Z"
          fill="black"></path>
    <path fill-rule="evenodd" clip-rule="evenodd"
          d="M46.8367 24.6061C46.8367 26.1199 46.3702 27.3353 45.4373 28.233C44.3807 29.3038 43.0058 29.8407 41.3125 29.8437C39.6915 29.8437 38.3143 29.3015 37.1808 28.2172C36.0472 27.1329 35.4805 25.7876 35.4805 24.1814C35.4805 22.5775 36.0472 21.2326 37.1808 20.1467C38.3143 19.0609 39.6915 18.5184 41.3125 18.5191C42.1049 18.5149 42.8897 18.6683 43.618 18.9697C44.2938 19.2345 44.8954 19.6493 45.3743 20.1805L44.3865 21.1357C43.6433 20.2774 42.6186 19.8482 41.3125 19.8482C40.7444 19.8416 40.1806 19.9447 39.6543 20.1515C39.128 20.3582 38.6498 20.6645 38.2478 21.0523C37.3848 21.8558 36.9533 22.8981 36.9533 24.1792C36.9533 25.4602 37.3848 26.5029 38.2478 27.3071C38.6498 27.6949 39.128 28.0012 39.6543 28.208C40.1806 28.4148 40.7444 28.5178 41.3125 28.5112C42.5673 28.5112 43.6122 28.1158 44.4484 27.3071C44.9918 26.7822 45.3055 26.0208 45.3895 25.1197H41.3218V23.768H46.7586C46.8072 24.0438 46.8333 24.3229 46.8367 24.6027"
          fill="black"></path>
    <path fill-rule="evenodd" clip-rule="evenodd"
          d="M49.6194 27.8406C49.8459 28.0729 50.1193 28.258 50.4226 28.3845C50.7259 28.511 51.0528 28.5762 51.3832 28.5762C51.7136 28.5762 52.0405 28.511 52.3438 28.3845C52.6472 28.258 52.9205 28.0729 53.1471 27.8406C53.6439 27.3518 53.8922 26.7034 53.8922 25.8954C53.8922 25.0874 53.6442 24.4386 53.1482 23.949C52.9215 23.7171 52.6481 23.5322 52.3448 23.4059C52.0415 23.2796 51.7147 23.2145 51.3844 23.2145C51.0541 23.2145 50.7273 23.2796 50.424 23.4059C50.1207 23.5322 49.8473 23.7171 49.6205 23.949C49.1238 24.4386 48.8754 25.0874 48.8754 25.8954C48.8754 26.7034 49.1234 27.3518 49.6194 27.8406ZM48.5453 23.0705C49.287 22.3195 50.2328 21.9441 51.3826 21.9441C52.5325 21.9441 53.4786 22.3195 54.2211 23.0705C54.9644 23.8214 55.3356 24.763 55.3348 25.8954C55.334 27.0278 54.9628 27.9691 54.2211 28.7192C53.4779 29.4701 52.5317 29.8456 51.3826 29.8456C50.2336 29.8456 49.2878 29.4701 48.5453 28.7192C47.8029 27.9683 47.4316 27.027 47.4316 25.8954C47.4316 24.7638 47.8029 23.8221 48.5453 23.0705Z"
          fill="black"></path>
    <path fill-rule="evenodd" clip-rule="evenodd"
          d="M58.0081 27.8406C58.2347 28.073 58.5082 28.258 58.8116 28.3846C59.115 28.5111 59.442 28.5763 59.7725 28.5763C60.103 28.5763 60.43 28.5111 60.7334 28.3846C61.0368 28.258 61.3102 28.073 61.5369 27.8406C62.0337 27.3518 62.2817 26.7034 62.2809 25.8954C62.2801 25.0874 62.0321 24.4386 61.5369 23.949C61.3101 23.717 61.0366 23.5322 60.7332 23.4059C60.4298 23.2795 60.1029 23.2144 59.7725 23.2144C59.4421 23.2144 59.1152 23.2795 58.8118 23.4059C58.5084 23.5322 58.2349 23.717 58.0081 23.949C57.5113 24.4386 57.2633 25.0874 57.264 25.8954C57.2648 26.7034 57.5128 27.3518 58.0081 27.8406ZM56.934 23.0705C57.6757 22.3195 58.6218 21.9441 59.7725 21.9441C60.9231 21.9441 61.8693 22.3195 62.6109 23.0705C63.3526 23.8214 63.7235 24.763 63.7235 25.8954C63.7235 27.0278 63.3526 27.9691 62.6109 28.7192C61.8685 29.4701 60.9223 29.8456 59.7725 29.8456C58.6226 29.8456 57.6765 29.4701 56.934 28.7192C56.1923 27.9683 55.8211 27.027 55.8203 25.8954C55.8195 24.7638 56.1908 23.8221 56.934 23.0705Z"
          fill="black"></path>
    <path fill-rule="evenodd" clip-rule="evenodd"
          d="M68.1001 28.5759C68.4257 28.5802 68.7485 28.5176 69.0471 28.3922C69.3457 28.2667 69.6132 28.0813 69.8319 27.8482C70.3077 27.3639 70.5456 26.7128 70.5456 25.8951C70.5456 25.0773 70.3077 24.4259 69.8319 23.9408C69.611 23.711 69.3432 23.5279 69.0455 23.4029C68.7478 23.2779 68.4265 23.2138 68.1018 23.2145C67.7772 23.2152 67.4562 23.2809 67.1591 23.4072C66.862 23.5336 66.5951 23.7179 66.3754 23.9487C65.8933 24.4383 65.6527 25.0871 65.6535 25.8951C65.6543 26.7031 65.8949 27.3515 66.3754 27.8403C66.5924 28.0741 66.8584 28.2605 67.1558 28.3874C67.4532 28.5142 67.7751 28.5784 68.1001 28.5759ZM67.9905 33.1185C67.0801 33.1185 66.3376 32.8989 65.7631 32.4596C65.2254 32.066 64.7994 31.5476 64.5246 30.9525L65.8424 30.4231C65.9948 30.8343 66.2771 31.1889 66.6494 31.4368C67.0393 31.7089 67.5096 31.8523 67.9905 31.8457C68.7847 31.8457 69.4331 31.6204 69.8879 31.1564C70.3427 30.6923 70.5934 30.0739 70.5934 29.2855V28.6096H70.4768C70.1757 29.0043 69.7805 29.323 69.3248 29.5387C68.869 29.7544 68.3661 29.8607 67.8587 29.8487C66.8652 29.8487 66.008 29.4646 65.2932 28.7076C64.5783 27.9507 64.2109 27.0091 64.2109 25.8917C64.2109 24.7743 64.5713 23.8304 65.2932 23.0758C66.015 22.3211 66.871 21.9393 67.8587 21.9393C68.3689 21.9281 68.8742 22.0376 69.3305 22.2582C69.7869 22.4789 70.1804 22.8041 70.4768 23.2053H70.5934V22.1916H71.8762V29.2235C71.8762 30.4952 71.5193 31.4616 70.7567 32.1239C69.994 32.7862 69.0879 33.1151 67.9905 33.1151"
          fill="black"></path>
    <path d="M74.6748 18.8162H73.2754V29.6294H74.6748V18.8162Z" fill="black"></path>
    <path fill-rule="evenodd" clip-rule="evenodd"
          d="M81.5677 25.0105C81.5362 24.5599 81.3344 24.1781 80.9636 23.794C80.5927 23.4099 80.0411 23.2162 79.3088 23.2162C78.8002 23.2086 78.3066 23.3822 77.9222 23.7039C77.5146 24.0444 77.2313 24.5025 77.114 25.0105H81.5677ZM79.4977 29.8471C78.337 29.8471 77.3935 29.4736 76.6674 28.7264C75.9413 27.9792 75.5778 27.0353 75.577 25.8947C75.5558 24.8701 75.9337 23.8752 76.6359 23.1069C76.9685 22.7305 77.3838 22.4307 77.8517 22.2292C78.3196 22.0277 78.8282 21.9296 79.3403 21.9422C80.4808 21.9422 81.3927 22.3004 82.0761 23.0168C82.7618 23.7343 83.1035 24.6861 83.1035 25.8868L83.0895 26.1369H77.0254C77.0662 26.9253 77.3251 27.4817 77.8009 27.9154C78.2455 28.3394 78.8461 28.5756 79.4709 28.5721C80.5064 28.5721 81.2061 28.1486 81.57 27.3015L82.8528 27.8163C82.5924 28.4036 82.1625 28.9061 81.6143 29.2637C81.039 29.6519 80.3335 29.8464 79.4977 29.8471Z"
          fill="black"></path>
    <path fill-rule="evenodd" clip-rule="evenodd"
          d="M88.7861 23.8848H91.1954C91.4687 23.8954 91.741 23.8478 91.9932 23.7454C92.2453 23.643 92.471 23.4884 92.6543 23.2924C93.0023 22.9408 93.1987 22.4744 93.2036 21.988C93.1992 21.4962 93.0031 21.024 92.6543 20.6657C92.472 20.4673 92.2469 20.3099 91.9949 20.2044C91.7428 20.099 91.47 20.048 91.1954 20.0552H88.7861V23.8848ZM88.7861 29.6294H87.3867V18.8162H91.1675C92.1191 18.8162 92.9424 19.0944 93.6374 19.7049C93.9744 19.9909 94.2424 20.3447 94.4225 20.7415C94.6026 21.1383 94.6905 21.5684 94.68 22.0015C94.6907 22.4372 94.603 22.8699 94.4229 23.2694C94.2429 23.669 93.9748 24.0258 93.6374 24.3151C92.968 24.9185 92.083 25.2486 91.1675 25.2365H88.7861V29.6294Z"
          fill="black"></path>
    <path d="M97.0654 18.8162H95.666V29.6294H97.0654V18.8162Z" fill="black"></path>
    <path fill-rule="evenodd" clip-rule="evenodd"
          d="M101.01 28.5761C101.617 28.5718 102.199 28.3409 102.634 27.9318C102.862 27.7444 103.046 27.5112 103.171 27.2485C103.297 26.9857 103.362 26.6996 103.362 26.4101C102.955 26.0872 102.344 25.9258 101.528 25.9258C100.828 25.9258 100.3 26.0718 99.9443 26.3639C99.5945 26.6579 99.4114 27.0003 99.4114 27.3946C99.4075 27.5668 99.4503 27.7371 99.5356 27.8885C99.6209 28.0398 99.7458 28.167 99.8977 28.2574C100.226 28.4709 100.614 28.5822 101.01 28.5761ZM100.777 29.8681C100.03 29.8881 99.3022 29.6419 98.7315 29.1765C98.1823 28.7259 97.9082 28.1166 97.9082 27.3743C97.9082 26.5655 98.2324 25.931 98.8808 25.4707C99.5292 25.0104 100.329 24.7802 101.28 24.7802C102.126 24.7802 102.782 24.93 103.365 25.2308V25.019C103.375 24.7725 103.328 24.5269 103.227 24.3003C103.126 24.0736 102.974 23.8716 102.782 23.7091C102.386 23.3781 101.877 23.2025 101.354 23.2168C100.956 23.2118 100.563 23.311 100.218 23.5041C99.8947 23.6772 99.6463 23.9571 99.5187 24.2925L98.2009 23.7462C98.3782 23.3024 98.728 22.8894 99.2505 22.5072C99.7729 22.125 100.463 21.9373 101.32 21.944C102.304 21.944 103.128 22.2211 103.776 22.7764C104.425 23.3317 104.758 24.1145 104.758 25.1238V29.6293H103.359V28.6155H103.297C103.019 29.0125 102.642 29.3354 102.2 29.5543C101.759 29.7732 101.267 29.8811 100.771 29.8681"
          fill="black"></path>
    <path fill-rule="evenodd" clip-rule="evenodd"
          d="M107.91 32.8954H106.388L108.176 29.1502L105.01 22.1948H106.577L108.866 27.4888H108.898L111.124 22.1948H112.691L107.879 32.8954"
          fill="black"></path>
    <path
      d="M36.7764 16.5993H36.0312V14.6361H36.6237C37.1492 14.1998 37.4062 13.4526 37.3945 12.3946V9.49756H41.1974V14.6361H41.875V16.5993H41.1298V15.3603H36.7764V16.5993ZM38.1758 12.3946C38.186 13.322 37.9939 14.0691 37.5998 14.6361H40.4196V10.2173H38.1747L38.1758 12.3946Z"
      fill="black"></path>
    <path
      d="M43.054 11.829C43.4614 11.4377 44.0125 11.218 44.587 11.218C45.1615 11.218 45.7126 11.4377 46.1199 11.829C46.3192 12.0322 46.475 12.2714 46.5783 12.533C46.6815 12.7945 46.7303 13.0732 46.7217 13.353C46.7306 13.633 46.682 13.9119 46.5788 14.1737C46.4755 14.4354 46.3195 14.6748 46.1199 14.8781C45.7122 15.2686 45.1612 15.4877 44.587 15.4877C44.0128 15.4877 43.4618 15.2686 43.054 14.8781C42.8544 14.6748 42.6985 14.4354 42.5952 14.1737C42.4919 13.9119 42.4434 13.633 42.4523 13.353C42.443 13.0731 42.4914 12.7942 42.5947 12.5326C42.698 12.271 42.8542 12.0318 43.054 11.829ZM43.6301 14.4073C43.7534 14.5321 43.9019 14.6313 44.0663 14.6987C44.2308 14.7661 44.4078 14.8003 44.5864 14.7992C44.7652 14.8006 44.9423 14.7661 45.1065 14.6978C45.2707 14.6296 45.4185 14.5291 45.5403 14.4027C45.6766 14.2626 45.7825 14.0975 45.8516 13.9172C45.9207 13.7369 45.9516 13.545 45.9427 13.353C45.952 13.1605 45.9211 12.9682 45.852 12.7875C45.7829 12.6068 45.6769 12.4413 45.5403 12.3009C45.4177 12.1757 45.2699 12.0759 45.106 12.0077C44.9421 11.9395 44.7655 11.9043 44.587 11.9043C44.4085 11.9043 44.2319 11.9395 44.068 12.0077C43.904 12.0759 43.7562 12.1757 43.6336 12.3009C43.4981 12.4418 43.3932 12.6075 43.3251 12.7882C43.257 12.9689 43.2271 13.1609 43.2371 13.353C43.2182 13.7408 43.3596 14.1201 43.6301 14.4073Z"
      fill="black"></path>
    <path
      d="M49.3306 15.4866C49.0451 15.4953 48.761 15.4455 48.4969 15.3404C48.2327 15.2354 47.9947 15.0775 47.7983 14.8772C47.5999 14.6736 47.4451 14.4342 47.3428 14.1727C47.2405 13.9111 47.1928 13.6326 47.2024 13.3532C47.1935 13.073 47.2421 12.7939 47.3453 12.532C47.4486 12.2701 47.6045 12.0304 47.8041 11.827C47.9994 11.6265 48.2364 11.4682 48.4994 11.3624C48.7625 11.2566 49.0458 11.2057 49.3306 11.2131C49.7413 11.1974 50.1461 11.3121 50.4828 11.5397C50.7813 11.7497 51.0131 12.0361 51.1522 12.3665L50.4408 12.6526C50.3575 12.4229 50.1995 12.2255 49.9903 12.0899C49.7811 11.9543 49.5321 11.8877 49.2805 11.9002C49.1072 11.9013 48.9362 11.9384 48.7791 12.009C48.6219 12.0795 48.4823 12.1819 48.3697 12.3091C48.1152 12.5995 47.9756 12.9677 47.9756 13.3481C47.9756 13.7286 48.1152 14.0968 48.3697 14.3872C48.4823 14.5144 48.6219 14.6167 48.7791 14.6873C48.9362 14.7578 49.1072 14.7949 49.2805 14.7961C49.8628 14.7961 50.2636 14.5453 50.4828 14.0437L51.1825 14.3298C51.0392 14.6601 50.8029 14.945 50.5003 15.152C50.1583 15.383 49.7478 15.5004 49.3306 15.4866Z"
      fill="black"></path>
    <path d="M51.584 12.0333V11.3462H54.8026V12.0333H53.5828V15.355H52.7991V12.0333H51.584Z"
          fill="black"></path>
    <path
      d="M56.5901 17.1222H55.7854L56.751 15.1015L55.0391 11.3462H55.8869L57.123 14.2263H57.1405L58.3428 11.3462H59.1906L56.5901 17.1222Z"
      fill="black"></path>
    <path d="M59.6992 15.355V11.3462H63.375V15.355H62.5948V12.0333H60.4782V15.355H59.6992Z"
          fill="black"></path>
    <path
      d="M68 15.355H67.221V13.7026H65.1032V15.355H64.3242V11.3462H65.1032V12.9986H67.221V11.3462H68V15.355Z"
      fill="black"></path>
    <path
      d="M69.3138 11.8286C69.7213 11.4372 70.2727 11.2175 70.8473 11.2175C71.422 11.2175 71.9734 11.4372 72.3809 11.8286C72.58 12.0319 72.7356 12.2711 72.8387 12.5327C72.9417 12.7942 72.9903 13.0729 72.9815 13.3526C72.9906 13.6325 72.9422 13.9114 72.8391 14.1731C72.736 14.4349 72.5803 14.6744 72.3809 14.8777C71.9728 15.268 71.4217 15.4869 70.8473 15.4869C70.273 15.4869 69.7219 15.268 69.3138 14.8777C69.1142 14.6745 68.9583 14.435 68.855 14.1733C68.7517 13.9115 68.7031 13.6326 68.7121 13.3526C68.7028 13.0727 68.7512 12.7938 68.8545 12.5322C68.9578 12.2706 69.1139 12.0314 69.3138 11.8286ZM69.8899 14.4069C70.0134 14.5318 70.1621 14.631 70.3267 14.6984C70.4913 14.7658 70.6685 14.8 70.8473 14.7988C71.026 14.8005 71.203 14.7661 71.3671 14.6978C71.5311 14.6295 71.6786 14.5289 71.8001 14.4024C71.9366 14.2621 72.0425 14.0968 72.1116 13.9163C72.1807 13.7358 72.2116 13.5437 72.2024 13.3514C72.2117 13.159 72.1809 12.9667 72.1118 12.786C72.0427 12.6053 71.9367 12.4398 71.8001 12.2994C71.6776 12.1742 71.5299 12.0744 71.3661 12.0062C71.2022 11.938 71.0257 11.9029 70.8473 11.9029C70.669 11.9029 70.4924 11.938 70.3286 12.0062C70.1648 12.0744 70.0171 12.1742 69.8946 12.2994C69.758 12.4398 69.652 12.6053 69.5829 12.786C69.5138 12.9667 69.4829 13.159 69.4922 13.3514C69.4834 13.544 69.5139 13.7363 69.5821 13.9174C69.6504 14.0986 69.755 14.2649 69.8899 14.4069Z"
      fill="black"></path>
    <path
      d="M78.3519 13.3183C78.8184 13.503 79.0517 13.7917 79.0517 14.1844C79.0547 14.3427 79.0213 14.4997 78.954 14.644C78.8866 14.7884 78.787 14.9165 78.6622 15.0191C78.4157 15.2392 78.0916 15.36 77.756 15.357H75.5566V11.346H77.6313C77.9573 11.3434 78.2723 11.4601 78.5129 11.6726C78.6345 11.7722 78.7317 11.8966 78.7977 12.0368C78.8636 12.1771 78.8966 12.3296 78.8942 12.4836C78.8942 12.8426 78.7135 13.1125 78.3519 13.2935V13.3183ZM77.5811 12.0331H76.3356V13.0141H77.5811C77.7196 13.0147 77.8529 12.9635 77.9531 12.8711C78.0037 12.8273 78.0442 12.7736 78.072 12.7136C78.0997 12.6537 78.114 12.5887 78.114 12.523C78.114 12.4574 78.0997 12.3924 78.072 12.3325C78.0442 12.2725 78.0037 12.2188 77.9531 12.175C77.853 12.0826 77.7195 12.0317 77.5811 12.0331ZM77.6744 13.6201H76.3356V14.6677H77.6744C77.8236 14.6689 77.9675 14.6149 78.0767 14.5167C78.1313 14.4704 78.175 14.4134 78.2049 14.3495C78.2348 14.2856 78.2503 14.2163 78.2503 14.1461C78.2503 14.076 78.2348 14.0067 78.2049 13.9428C78.175 13.8789 78.1313 13.8219 78.0767 13.7756C77.9683 13.6758 77.8242 13.6201 77.6744 13.6201Z"
      fill="black"></path>
  </g>
  <defs>
    <clipPath id="clip0_6389_12905">
      <rect width="121" height="41" fill="white"
            transform="translate(0.671875 0.625)"></rect>
    </clipPath>
  </defs>
</svg>