<svg width="36" height="36" viewBox="0 0 36 36" fill="none" xmlns="http://www.w3.org/2000/svg">
<mask id="path-1-inside-1_2265_4530" fill="white">
<path d="M29 3V33H7V3H29ZM30 2H6V34H30V2Z"/>
</mask>
<path d="M29 3V33H7V3H29ZM30 2H6V34H30V2Z" fill="#A39D94"/>
<path d="M29 3H30V2H29V3ZM29 33V34H30V33H29ZM7 33H6V34H7V33ZM7 3V2H6V3H7ZM30 2H31V1H30V2ZM6 2V1H5V2H6ZM6 34H5V35H6V34ZM30 34V35H31V34H30ZM28 3V33H30V3H28ZM29 32H7V34H29V32ZM8 33V3H6V33H8ZM7 4H29V2H7V4ZM30 1H6V3H30V1ZM5 2V34H7V2H5ZM6 35H30V33H6V35ZM31 34V2H29V34H31Z" fill="#111111" mask="url(#path-1-inside-1_2265_4530)"/>
<mask id="path-3-inside-2_2265_4530" fill="white">
<path d="M27 5V31H9V5H27ZM28 4H8V32H28V4Z"/>
</mask>
<path d="M27 5V31H9V5H27ZM28 4H8V32H28V4Z" fill="#A39D94"/>
<path d="M27 5H28V4H27V5ZM27 31V32H28V31H27ZM9 31H8V32H9V31ZM9 5V4H8V5H9ZM28 4H29V3H28V4ZM8 4V3H7V4H8ZM8 32H7V33H8V32ZM28 32V33H29V32H28ZM26 5V31H28V5H26ZM27 30H9V32H27V30ZM10 31V5H8V31H10ZM9 6H27V4H9V6ZM28 3H8V5H28V3ZM7 4V32H9V4H7ZM8 33H28V31H8V33ZM29 32V4H27V32H29Z" fill="#111111" mask="url(#path-3-inside-2_2265_4530)"/>
<mask id="path-5-inside-3_2265_4530" fill="white">
<path d="M25 7V29H11V7H25ZM26 6H10V30H26V6Z"/>
</mask>
<path d="M25 7V29H11V7H25ZM26 6H10V30H26V6Z" fill="#A39D94"/>
<path d="M25 7H26V6H25V7ZM25 29V30H26V29H25ZM11 29H10V30H11V29ZM11 7V6H10V7H11ZM26 6H27V5H26V6ZM10 6V5H9V6H10ZM10 30H9V31H10V30ZM26 30V31H27V30H26ZM24 7V29H26V7H24ZM25 28H11V30H25V28ZM12 29V7H10V29H12ZM11 8H25V6H11V8ZM26 5H10V7H26V5ZM9 6V30H11V6H9ZM10 31H26V29H10V31ZM27 30V6H25V30H27Z" fill="#111111" mask="url(#path-5-inside-3_2265_4530)"/>
<mask id="path-7-inside-4_2265_4530" fill="white">
<path d="M23 9V27H13V9H23ZM24 8H12V28H24V8Z"/>
</mask>
<path d="M23 9V27H13V9H23ZM24 8H12V28H24V8Z" fill="#A39D94"/>
<path d="M23 9H24V8H23V9ZM23 27V28H24V27H23ZM13 27H12V28H13V27ZM13 9V8H12V9H13ZM24 8H25V7H24V8ZM12 8V7H11V8H12ZM12 28H11V29H12V28ZM24 28V29H25V28H24ZM22 9V27H24V9H22ZM23 26H13V28H23V26ZM14 27V9H12V27H14ZM13 10H23V8H13V10ZM24 7H12V9H24V7ZM11 8V28H13V8H11ZM12 29H24V27H12V29ZM25 28V8H23V28H25Z" fill="#111111" mask="url(#path-7-inside-4_2265_4530)"/>
<path d="M23.5 27.5L29.417 33.417" stroke="#111111" stroke-miterlimit="10"/>
<path d="M12.48 27.5L6.56396 33.417" stroke="#111111" stroke-miterlimit="10"/>
<path d="M23.5 8.48289L29.417 2.56689" stroke="#111111" stroke-miterlimit="10"/>
<path d="M12.48 8.48289L6.56396 2.56689" stroke="#111111" stroke-miterlimit="10"/>
</svg>
