<svg width="36" height="36" viewBox="0 0 36 36" fill="none" xmlns="http://www.w3.org/2000/svg">
<path d="M21 8L23.677 2.646" stroke="#111111" stroke-miterlimit="10"/>
<path d="M23 9.99982L27.432 7.34082" stroke="#111111" stroke-miterlimit="10"/>
<path d="M15.0002 8L12.3232 2.646" stroke="#111111" stroke-miterlimit="10"/>
<path d="M12.9998 10.0001L8.55078 7.33105" stroke="#111111" stroke-miterlimit="10"/>
<path d="M21 28L23.728 33.456" stroke="#111111" stroke-miterlimit="10"/>
<path d="M23 26L27.428 28.657" stroke="#111111" stroke-miterlimit="10"/>
<path d="M23.9094 2.68764L23.7593 2.5H23.7597L27.5 7.17539V7.1756L27.3904 7.03864L23.9094 2.68764ZM23.9094 33.3124L24.6367 32.4038L23.7597 33.5H23.7592L23.9094 33.3124ZM12.0906 33.3124L12.2407 33.5H12.2403L8.5 28.8246V28.8244L8.60957 28.9614L12.0906 33.3124ZM8.60957 7.03864L8.5 7.1756V7.17539L12.2403 2.5H12.2407L12.0906 2.68764L8.60957 7.03864Z" stroke="#111111"/>
<path fill-rule="evenodd" clip-rule="evenodd" d="M14 30L11 26.979V9.021L14 6H22L25 9.021V26.979L22 30H14Z" stroke="#111111" stroke-width="1.01835" stroke-miterlimit="10"/>
<path fill-rule="evenodd" clip-rule="evenodd" d="M15 28L13 26V10L15 8H21L23 10V26L21 28H15Z" stroke="#111111" stroke-miterlimit="10"/>
<path d="M14.9998 28L12.2998 33.4" stroke="#111111" stroke-miterlimit="10"/>
<path d="M12.9999 26L8.52686 28.684" stroke="#111111" stroke-miterlimit="10"/>
</svg>
