<svg width="36" height="36" viewBox="0 0 36 36" fill="none" xmlns="http://www.w3.org/2000/svg">
<path d="M26 18C26 28 18 34 18 34C18 34 10 28 10 18C10 8 18 2 18 2C18 2 26 8 26 18Z" stroke="#111111" stroke-miterlimit="10"/>
<path d="M24 26L20 30" stroke="#111111" stroke-miterlimit="10"/>
<path d="M18 2L20 7L22.986 24L24 26" stroke="#111111" stroke-miterlimit="10"/>
<path d="M18 34L19.986 28.986L23 13L24 10L20 6" stroke="#111111" stroke-miterlimit="10"/>
<path d="M12.4761 27.3569L16.0001 29.9999" stroke="#111111" stroke-miterlimit="10"/>
<path d="M17.9999 2L15.9999 7L12.9859 24L12.1099 26.665" stroke="#111111" stroke-miterlimit="10"/>
<path d="M26 18L22.986 24L20.604 26L18 28L15.429 26L12.986 24L10 18" stroke="#111111" stroke-miterlimit="10"/>
<path d="M10 18L13 13L15 11L18 8L21 11L23 13L26 18" stroke="#111111" stroke-miterlimit="10"/>
<path d="M21 5L18 8L15 5" stroke="#111111" stroke-miterlimit="10"/>
<path d="M18 28L15 30.986" stroke="#111111" stroke-miterlimit="10"/>
<path d="M21 30.986L18 28" stroke="#111111" stroke-miterlimit="10"/>
<path d="M16 6L12 10L13 13L15.986 28.986L18 34" stroke="#111111" stroke-miterlimit="10"/>
</svg>
