<svg width="36" height="36" viewBox="0 0 36 36" fill="none" xmlns="http://www.w3.org/2000/svg">
<path d="M18 6.00069C17.2964 4.76993 16.2761 3.74992 15.0452 3.04654C13.8143 2.34317 12.4176 1.98205 11 2.00069C9 2.00069 2 3.00069 2 11.0007C2 22.0007 9 29.0007 18 34.0007C27 29.0007 34 22.0007 34 11.0007C34 6.17969 31.458 3.90069 29 2.85069C27.733 2.31521 26.3753 2.0267 25 2.00069C23.5824 1.98205 22.1857 2.34317 20.9548 3.04654C19.7239 3.74992 18.7036 4.76993 18 6.00069V6.00069Z" stroke="#111111" stroke-miterlimit="10"/>
<path d="M18 8.00049L24 5.00049L29 3.00049" stroke="#111111" stroke-miterlimit="10"/>
<path d="M18 6.00049V8.00049" stroke="#111111" stroke-miterlimit="10"/>
<path d="M29 3.00049V8.00049L25 21.0005L20 28.0005L18 34.0005" stroke="#111111" stroke-miterlimit="10"/>
<path d="M29 8.00049L34 12.0005" stroke="#111111" stroke-miterlimit="10"/>
<path d="M30 17.0005L34 12.0005" stroke="#111111" stroke-miterlimit="10"/>
<path d="M24 2.00049V5.00049L19.5 4" stroke="#111111" stroke-miterlimit="10"/>
<path d="M24 5.00049L25 8.00049L30 17.0005L29 25.0005" stroke="#111111" stroke-miterlimit="10"/>
<path d="M20 28.0005L24 30.0005" stroke="#111111" stroke-miterlimit="10"/>
<path d="M29 25.0005L20 28.0005" stroke="#111111" stroke-miterlimit="10"/>
<path d="M33 18.0005L30 17.0005L25 21.0005L18 25.0005L20 28.0005" stroke="#111111" stroke-miterlimit="10"/>
<path d="M18 8.00049L12 5.00049L7 3.00049" stroke="#111111" stroke-miterlimit="10"/>
<path d="M18 6.00049V8.00049" stroke="#111111" stroke-miterlimit="10"/>
<path d="M7 3.00049V8.00049L11 21.0005L16 28.0005L18 34.0005" stroke="#111111" stroke-miterlimit="10"/>
<path d="M4 5.00049L7 8.00049H18H29L32 5.00049" stroke="#111111" stroke-miterlimit="10"/>
<path d="M7 8.00049L2 12.0005" stroke="#111111" stroke-miterlimit="10"/>
<path d="M6 17.0005L2 12.0005" stroke="#111111" stroke-miterlimit="10"/>
<path d="M12 2.00049V5.00049L16.5 4" stroke="#111111" stroke-miterlimit="10"/>
<path d="M12 5.00049L11 8.00049L6 17.0005L7 25.0005" stroke="#111111" stroke-miterlimit="10"/>
<path d="M16 28.0005L12 30.0005" stroke="#111111" stroke-miterlimit="10"/>
<path d="M7 25.0005L16 28.0005" stroke="#111111" stroke-miterlimit="10"/>
<path d="M3 18.0005L6 17.0005L11 21.0005L18 25.0005L16 28.0005" stroke="#111111" stroke-miterlimit="10"/>
</svg>
