<svg width="36" height="36" viewBox="0 0 36 36" fill="none" xmlns="http://www.w3.org/2000/svg">
<path d="M18 34C23.5228 34 28 26.8366 28 18C28 9.16344 23.5228 2 18 2C12.4772 2 8 9.16344 8 18C8 26.8366 12.4772 34 18 34Z" stroke="#111111" stroke-miterlimit="10"/>
<path d="M18 2L21 7L25 23V29L21 28L18 26L22 24L25 23L28 18" stroke="#111111" stroke-miterlimit="10"/>
<path d="M22 3L21 7H25V13L22 24L21 28L18 34" stroke="#111111" stroke-miterlimit="10"/>
<path d="M27 12L25 13L28 17" stroke="#111111" stroke-miterlimit="10"/>
<path d="M21 28L22 33" stroke="#111111" stroke-miterlimit="10"/>
<path d="M25 23L27 24" stroke="#111111" stroke-miterlimit="10"/>
<path d="M25 13L18 9L21 7" stroke="#111111" stroke-miterlimit="10"/>
<path d="M18 2L15 7L11 23V29L15 28L18 26L14 24L11 23L8 18" stroke="#111111" stroke-miterlimit="10"/>
<path d="M14 3L15 7H11V13L14 24L15 28L18 34" stroke="#111111" stroke-miterlimit="10"/>
<path d="M9 12L11 13L8 17" stroke="#111111" stroke-miterlimit="10"/>
<path d="M15 28L14 33" stroke="#111111" stroke-miterlimit="10"/>
<path d="M11 23L9 24" stroke="#111111" stroke-miterlimit="10"/>
<path d="M11 13L18 9L15 7" stroke="#111111" stroke-miterlimit="10"/>
</svg>
