<svg width="36" height="36" viewBox="0 0 36 36" fill="none" xmlns="http://www.w3.org/2000/svg">
<mask id="path-1-inside-1_2265_4541" fill="white">
<path d="M28.586 3L33 7.414V28.586L28.586 33H7.414L3 28.586V7.414L7.414 3H28.586ZM29 2H7L2 7V29L7 34H29L34 29V7L29 2Z"/>
</mask>
<path d="M28.586 3L29.2931 2.29289L29.0002 2H28.586V3ZM33 7.414H34V6.99979L33.7071 6.70689L33 7.414ZM33 28.586L33.7071 29.2931L34 29.0002V28.586H33ZM28.586 33V34H29.0002L29.2931 33.7071L28.586 33ZM7.414 33L6.70689 33.7071L6.99979 34H7.414V33ZM3 28.586H2V29.0002L2.29289 29.2931L3 28.586ZM3 7.414L2.29289 6.70689L2 6.99979V7.414H3ZM7.414 3V2H6.99979L6.70689 2.29289L7.414 3ZM29 2L29.7071 1.29289L29.4142 1H29V2ZM7 2V1H6.58579L6.29289 1.29289L7 2ZM2 7L1.29289 6.29289L1 6.58579V7H2ZM2 29H1V29.4142L1.29289 29.7071L2 29ZM7 34L6.29289 34.7071L6.58579 35H7V34ZM29 34V35H29.4142L29.7071 34.7071L29 34ZM34 29L34.7071 29.7071L35 29.4142V29H34ZM34 7H35V6.58579L34.7071 6.29289L34 7ZM27.8789 3.70711L32.2929 8.12111L33.7071 6.70689L29.2931 2.29289L27.8789 3.70711ZM32 7.414V28.586H34V7.414H32ZM32.2929 27.8789L27.8789 32.2929L29.2931 33.7071L33.7071 29.2931L32.2929 27.8789ZM28.586 32H7.414V34H28.586V32ZM8.12111 32.2929L3.70711 27.8789L2.29289 29.2931L6.70689 33.7071L8.12111 32.2929ZM4 28.586V7.414H2V28.586H4ZM3.70711 8.12111L8.12111 3.70711L6.70689 2.29289L2.29289 6.70689L3.70711 8.12111ZM7.414 4H28.586V2H7.414V4ZM29 1H7V3H29V1ZM6.29289 1.29289L1.29289 6.29289L2.70711 7.70711L7.70711 2.70711L6.29289 1.29289ZM1 7V29H3V7H1ZM1.29289 29.7071L6.29289 34.7071L7.70711 33.2929L2.70711 28.2929L1.29289 29.7071ZM7 35H29V33H7V35ZM29.7071 34.7071L34.7071 29.7071L33.2929 28.2929L28.2929 33.2929L29.7071 34.7071ZM35 29V7H33V29H35ZM34.7071 6.29289L29.7071 1.29289L28.2929 2.70711L33.2929 7.70711L34.7071 6.29289Z" fill="#111111" mask="url(#path-1-inside-1_2265_4541)"/>
<path d="M26.8766 5.64645L26.7301 5.5H26.7309L29.7756 8.54546L26.8766 5.64645ZM30.3536 26.8766L30.5 26.7301V26.7309L26.7309 30.5H26.7301L26.8766 30.3536L30.3536 26.8766ZM5.64645 26.8766L8.54546 29.7756L5.5 26.7309V26.7301L5.64645 26.8766Z" stroke="#111111"/>
<mask id="path-4-inside-2_2265_4541" fill="white">
<path d="M24.461 9L27 11.539V24.461L24.461 27H11.539L9 24.461V11.593L12.112 9H24.461ZM24.875 8H11.75L8 11.125V24.875L11.125 28H24.875L28 24.875V11.125L24.875 8Z"/>
</mask>
<path d="M24.461 9L25.1681 8.29289L24.8752 8H24.461V9ZM27 11.539H28V11.1248L27.7071 10.8319L27 11.539ZM27 24.461L27.7071 25.1681L28 24.8752V24.461H27ZM24.461 27V28H24.8752L25.1681 27.7071L24.461 27ZM11.539 27L10.8319 27.7071L11.1248 28H11.539V27ZM9 24.461H8V24.8752L8.29289 25.1681L9 24.461ZM9 11.593L8.35986 10.8247L8 11.1246V11.593H9ZM12.112 9V8H11.75L11.4719 8.23174L12.112 9ZM24.875 8L25.5821 7.29289L25.2892 7H24.875V8ZM11.75 8V7H11.388L11.1098 7.23178L11.75 8ZM8 11.125L7.35982 10.3568L7 10.6566V11.125H8ZM8 24.875H7V25.2892L7.29289 25.5821L8 24.875ZM11.125 28L10.4179 28.7071L10.7108 29H11.125V28ZM24.875 28V29H25.2892L25.5821 28.7071L24.875 28ZM28 24.875L28.7071 25.5821L29 25.2892V24.875H28ZM28 11.125H29V10.7108L28.7071 10.4179L28 11.125ZM23.7539 9.70711L26.2929 12.2461L27.7071 10.8319L25.1681 8.29289L23.7539 9.70711ZM26 11.539V24.461H28V11.539H26ZM26.2929 23.7539L23.7539 26.2929L25.1681 27.7071L27.7071 25.1681L26.2929 23.7539ZM24.461 26H11.539V28H24.461V26ZM12.2461 26.2929L9.70711 23.7539L8.29289 25.1681L10.8319 27.7071L12.2461 26.2929ZM10 24.461V11.593H8V24.461H10ZM9.64014 12.3613L12.7521 9.76826L11.4719 8.23174L8.35986 10.8247L9.64014 12.3613ZM12.112 10H24.461V8H12.112V10ZM24.875 7H11.75V9H24.875V7ZM11.1098 7.23178L7.35982 10.3568L8.64018 11.8932L12.3902 8.76822L11.1098 7.23178ZM7 11.125V24.875H9V11.125H7ZM7.29289 25.5821L10.4179 28.7071L11.8321 27.2929L8.70711 24.1679L7.29289 25.5821ZM11.125 29H24.875V27H11.125V29ZM25.5821 28.7071L28.7071 25.5821L27.2929 24.1679L24.1679 27.2929L25.5821 28.7071ZM29 24.875V11.125H27V24.875H29ZM28.7071 10.4179L25.5821 7.29289L24.1679 8.70711L27.2929 11.8321L28.7071 10.4179Z" fill="#111111" mask="url(#path-4-inside-2_2265_4541)"/>
<path d="M28.7218 2.5L24.6108 8.556" stroke="#111111" stroke-miterlimit="10"/>
<path d="M33.5282 7.16699L27.4692 11.293" stroke="#111111" stroke-miterlimit="10"/>
<path d="M7.41406 2.5L11.5251 8.556" stroke="#111111" stroke-miterlimit="10"/>
<path d="M2.60791 7.16699L8.66691 11.293" stroke="#111111" stroke-miterlimit="10"/>
<path d="M28.7222 33.642L24.7222 27.556" stroke="#111111" stroke-miterlimit="10"/>
<path d="M33.5688 28.875L27.4858 24.583" stroke="#111111" stroke-miterlimit="10"/>
<path d="M7.34717 33.583L11.3192 27.528" stroke="#111111" stroke-miterlimit="10"/>
<path d="M2.58301 28.764L8.55601 24.681" stroke="#111111" stroke-miterlimit="10"/>
</svg>
