<svg width="36" height="36" viewBox="0 0 36 36" fill="none" xmlns="http://www.w3.org/2000/svg">
<mask id="path-1-inside-1_2265_4495" fill="white">
<path d="M27.473 3L33 8.527V27.6L27.473 33.127H8.527L3 27.6V8.527L8.527 3H27.473ZM27.887 2H8.113L2 8.113V28.013L8.113 34.126H27.887L34 28.012V8.113L27.887 2Z"/>
</mask>
<path d="M27.473 3L33 8.527V27.6L27.473 33.127H8.527L3 27.6V8.527L8.527 3H27.473ZM27.887 2H8.113L2 8.113V28.013L8.113 34.126H27.887L34 28.012V8.113L27.887 2Z" fill="#A39D94"/>
<path d="M27.473 3L28.1801 2.29289L27.8872 2H27.473V3ZM33 8.527H34V8.11279L33.7071 7.81989L33 8.527ZM33 27.6L33.7071 28.3071L34 28.0142V27.6H33ZM27.473 33.127V34.127H27.8872L28.1801 33.8341L27.473 33.127ZM8.527 33.127L7.81989 33.8341L8.11279 34.127H8.527V33.127ZM3 27.6H2V28.0142L2.29289 28.3071L3 27.6ZM3 8.527L2.29289 7.81989L2 8.11279V8.527H3ZM8.527 3V2H8.11279L7.81989 2.29289L8.527 3ZM27.887 2L28.5941 1.29289L28.3012 1H27.887V2ZM8.113 2V1H7.69879L7.40589 1.29289L8.113 2ZM2 8.113L1.29289 7.40589L1 7.69879V8.113H2ZM2 28.013H1V28.4272L1.29289 28.7201L2 28.013ZM8.113 34.126L7.40589 34.8331L7.69879 35.126H8.113V34.126ZM27.887 34.126V35.126H28.3013L28.5942 34.833L27.887 34.126ZM34 28.012L34.7072 28.719L35 28.4262V28.012H34ZM34 8.113H35V7.69879L34.7071 7.40589L34 8.113ZM26.7659 3.70711L32.2929 9.23411L33.7071 7.81989L28.1801 2.29289L26.7659 3.70711ZM32 8.527V27.6H34V8.527H32ZM32.2929 26.8929L26.7659 32.4199L28.1801 33.8341L33.7071 28.3071L32.2929 26.8929ZM27.473 32.127H8.527V34.127H27.473V32.127ZM9.23411 32.4199L3.70711 26.8929L2.29289 28.3071L7.81989 33.8341L9.23411 32.4199ZM4 27.6V8.527H2V27.6H4ZM3.70711 9.23411L9.23411 3.70711L7.81989 2.29289L2.29289 7.81989L3.70711 9.23411ZM8.527 4H27.473V2H8.527V4ZM27.887 1H8.113V3H27.887V1ZM7.40589 1.29289L1.29289 7.40589L2.70711 8.82011L8.82011 2.70711L7.40589 1.29289ZM1 8.113V28.013H3V8.113H1ZM1.29289 28.7201L7.40589 34.8331L8.82011 33.4189L2.70711 27.3059L1.29289 28.7201ZM8.113 35.126H27.887V33.126H8.113V35.126ZM28.5942 34.833L34.7072 28.719L33.2928 27.305L27.1798 33.419L28.5942 34.833ZM35 28.012V8.113H33V28.012H35ZM34.7071 7.40589L28.5941 1.29289L27.1799 2.70711L33.2929 8.82011L34.7071 7.40589Z" fill="#111111" mask="url(#path-1-inside-1_2265_4495)"/>
<path d="M8.5 2.5L11 11" stroke="#111111" stroke-miterlimit="10"/>
<path d="M25 11L27.5 2.5" stroke="#111111" stroke-miterlimit="10"/>
<path d="M33.5 8.5L25 11" stroke="#111111" stroke-miterlimit="10"/>
<path d="M2.5 8.5L11 11" stroke="#111111" stroke-miterlimit="10"/>
<path d="M25 25L33.5 27.5" stroke="#111111" stroke-miterlimit="10"/>
<path d="M27.5 33.5L25 25" stroke="#111111" stroke-miterlimit="10"/>
<path d="M8.5 33.5L11 25" stroke="#111111" stroke-miterlimit="10"/>
<path d="M2.5 27.5L11 25" stroke="#111111" stroke-miterlimit="10"/>
<path d="M31 27V9L27 5H9L5 9V27L9 31H27L31 27ZM31 27L27 18L25 11L18 9L9 5" stroke="#111111" stroke-miterlimit="10"/>
<path d="M27 5L18 9L11 11L10 18L11 25L18 27L27 31" stroke="#111111" stroke-miterlimit="10"/>
<path d="M31 9L27 18L25 25L18 27L9 31" stroke="#111111" stroke-miterlimit="10"/>
<path d="M5 9L10 18L5 27" stroke="#111111" stroke-miterlimit="10"/>
</svg>
