<svg width="122" height="42" viewBox="0 0 122 42" fill="none"
     xmlns="http://www.w3.org/2000/svg">
  <g clip-path="url(#clip0_6389_12891)">
    <path fill-rule="evenodd" clip-rule="evenodd"
          d="M9.50667 1.39881C6.29381 1.39881 4.49181 1.88963 3.2987 2.93721C2.06277 4.02491 1.4589 5.77036 1.4589 8.76304V33.0927C1.4589 36.1054 2.05867 37.9163 3.28081 39.0854C4.50405 40.2555 6.37806 40.8219 9.50434 40.8219H113.294C116.394 40.8219 118.193 40.2447 119.306 39.0661C120.375 37.9313 120.878 36.1941 120.878 33.0927V8.76304C120.878 5.64824 120.375 4.01619 119.291 2.95791C118.208 1.90112 116.474 1.39881 113.296 1.39881H9.50667ZM2.74934 2.35401C4.17546 1.10167 6.24047 0.610352 9.50667 0.610352H113.296C116.521 0.610352 118.547 1.11052 119.871 2.40334C121.194 3.69468 121.694 5.60394 121.694 8.76304V33.0927C121.694 36.2424 121.192 38.2357 119.91 39.597L119.909 39.5973C118.561 41.0251 116.468 41.6103 113.294 41.6103H9.50434C6.30063 41.6103 4.15833 41.0345 2.70637 39.6456C1.2533 38.2556 0.642578 36.1828 0.642578 33.0927V8.76304C0.642578 5.69592 1.25617 3.66802 2.74902 2.35429L2.74934 2.35401Z"
          fill="black"></path>
    <path fill-rule="evenodd" clip-rule="evenodd"
          d="M28.0161 8.44043H18.422C18.131 8.43433 17.8417 8.48503 17.5715 8.58951C17.3012 8.69399 17.0556 8.8501 16.8494 9.04847C16.6431 9.24684 16.4805 9.48339 16.3712 9.74394C16.2618 10.0045 16.2081 10.2837 16.2132 10.5648V31.2788C16.2132 32.5043 17.1881 33.5586 18.422 33.5586H28.0161C29.2487 33.5586 29.8575 32.5043 29.8575 31.2788V10.5648C29.8575 9.34041 29.2487 8.44043 28.0161 8.44043ZM22.1059 11.0311H24.3298C24.3917 11.0311 24.451 11.0548 24.4947 11.0971C24.5385 11.1393 24.563 11.1966 24.563 11.2564C24.563 11.3161 24.5385 11.3734 24.4947 11.4157C24.451 11.4579 24.3917 11.4816 24.3298 11.4816H22.1059C22.044 11.4816 21.9847 11.4579 21.941 11.4157C21.8972 11.3734 21.8727 11.3161 21.8727 11.2564C21.8727 11.1966 21.8972 11.1393 21.941 11.0971C21.9847 11.0548 22.044 11.0311 22.1059 11.0311ZM23.2173 32.3196C22.9804 32.3261 22.7469 32.2641 22.5467 32.1417C22.3465 32.0193 22.1886 31.842 22.0933 31.6325C21.998 31.4229 21.9696 31.1907 22.0118 30.9654C22.0539 30.7402 22.1647 30.5323 22.3299 30.3682C22.4951 30.2041 22.7072 30.0914 22.9392 30.0444C23.1711 29.9975 23.4122 30.0184 23.6318 30.1046C23.8513 30.1908 24.0392 30.3382 24.1714 30.5282C24.3037 30.7181 24.3743 30.9418 24.3741 31.1707C24.3772 31.4705 24.2573 31.7594 24.0405 31.974C23.8237 32.1887 23.5277 32.3117 23.2173 32.3162V32.3196ZM28.8079 29.5036H17.2628V12.9459H28.8079V29.5036Z"
          fill="black"></path>
    <path fill-rule="evenodd" clip-rule="evenodd"
          d="M108.886 26.4623H102.971C102.995 27.2507 103.282 27.9423 103.831 28.3884C104.328 28.7894 104.973 28.9854 105.764 28.9854C106.581 28.9956 107.393 28.8561 108.156 28.5742L108.466 29.8966C107.63 30.2525 106.636 30.4237 105.489 30.4237C104.117 30.4237 103.038 30.0336 102.252 29.2534C101.466 28.4732 101.073 27.4246 101.072 26.1075C101.072 24.8121 101.439 23.7421 102.167 22.8782C102.937 21.9628 103.972 21.5051 105.271 21.5051C106.552 21.5051 107.52 21.9628 108.174 22.8782C108.695 23.6092 108.959 24.5182 108.959 25.5882C108.963 25.8811 108.938 26.1737 108.886 26.4623ZM100.412 23.3771C100.214 23.3394 100.013 23.3231 99.8111 23.3287C99.1114 23.3287 98.5913 23.581 98.2135 24.0856C97.8846 24.5362 97.7295 25.0892 97.7295 25.7752V30.2953H95.747V24.3909C95.747 23.4098 95.747 22.5177 95.7085 21.7293H97.424L97.4974 23.3062H97.5511C97.7355 22.7756 98.0784 22.3096 98.5365 21.9669C98.9389 21.6721 99.4308 21.5137 99.9359 21.5164C100.092 21.5155 100.249 21.529 100.402 21.5569L100.412 23.3771ZM93.354 29.1633C92.5369 30.0306 91.4543 30.4647 90.1062 30.4654C88.8024 30.4654 87.7634 30.0483 86.989 29.214C86.2182 28.3816 85.8334 27.3251 85.8334 26.0602C85.8334 24.7333 86.2314 23.6463 87.0275 22.7993C87.8252 21.95 88.8934 21.5321 90.2473 21.5321C91.5546 21.5321 92.5995 21.9455 93.3902 22.7835C94.1424 23.59 94.5202 24.6398 94.5202 25.9194C94.5202 27.2327 94.133 28.3095 93.354 29.1588V29.1633ZM85.2514 23.0877H83.0357V27.2947C83.0357 28.3512 83.4497 28.8716 84.217 28.8716C84.515 28.8763 84.8125 28.8468 85.1033 28.7837L85.1663 30.2255C84.6731 30.3825 84.1553 30.4546 83.6363 30.4384C82.8608 30.4384 82.2555 30.2131 81.8194 29.7502C81.3832 29.2872 81.1663 28.5236 81.1663 27.4422V23.0832H79.8835V21.7315H81.1663V20.1298L83.0322 19.5666V21.7326H85.2479L85.2514 23.0877ZM78.3173 29.4066C77.5127 30.1005 76.3955 30.447 74.9658 30.4463C73.6387 30.4463 72.5786 30.1973 71.7774 29.7062L72.2357 28.1203C73.0954 28.6095 74.0765 28.8637 75.0742 28.8558C75.8194 28.8558 76.3967 28.6925 76.8107 28.3715C77.0121 28.2167 77.173 28.0183 77.2804 27.7922C77.3878 27.5662 77.4386 27.319 77.4287 27.0705C77.4342 26.8456 77.3924 26.6219 77.3058 26.413C77.2192 26.2041 77.0896 26.0143 76.9249 25.8552C76.5751 25.5263 76.0188 25.2233 75.227 24.9383C73.0758 24.1656 71.9994 23.0325 71.9978 21.5389C71.9853 21.0816 72.0813 20.6276 72.2786 20.2117C72.4759 19.7958 72.7692 19.4291 73.136 19.1397C73.8964 18.518 74.9036 18.2063 76.1576 18.2048C77.2771 18.2048 78.2089 18.3952 78.9564 18.768L78.4561 20.3235C77.7292 19.9507 76.9165 19.7612 76.0935 19.7727C75.3937 19.7727 74.8538 19.944 74.4608 20.265C74.3041 20.4005 74.1791 20.5667 74.0942 20.7526C74.0093 20.9385 73.9665 21.1398 73.9687 21.3429C73.9644 21.5661 74.0131 21.7873 74.1109 21.9895C74.2088 22.1918 74.3532 22.3698 74.5331 22.5098C74.8635 22.7899 75.4594 23.0944 76.3209 23.4233C77.3821 23.8311 78.1587 24.3165 78.6532 24.8707C79.1477 25.4249 79.4019 26.1097 79.4019 26.9297C79.4089 27.9457 79.0392 28.7702 78.3173 29.4021V29.4066ZM67.0416 29.3402C66.6981 29.7042 66.2779 29.9931 65.8092 30.1874C65.3405 30.3816 64.8343 30.4768 64.3244 30.4665C63.1501 30.4665 62.2778 30.0622 61.8113 29.2478V33.7894H59.8288V24.5193C59.8288 23.6035 59.7787 22.6382 59.732 21.7371H61.4615L61.5781 23.0888H61.6119C62.2731 22.0751 63.2679 21.5457 64.6055 21.5457C65.1074 21.537 65.6046 21.6397 66.0589 21.8459C66.5132 22.0522 66.9125 22.3564 67.2259 22.7351C67.9256 23.5326 68.2754 24.5839 68.2754 25.889C68.2742 27.3431 67.8638 28.4875 67.0416 29.3357V29.3402ZM57.2959 29.3402C56.9475 29.7045 56.5232 29.9932 56.0508 30.1874C55.5783 30.3816 55.0687 30.4767 54.5554 30.4665C53.3775 30.4665 52.5985 30.0622 52.0154 29.2478V33.7894H50.0329V24.5193C50.0329 23.6035 50.0329 22.6382 49.9839 21.7371H51.7181L51.8265 23.0888H51.8603C52.5215 22.0751 53.5175 21.5457 54.8586 21.5457C55.9081 21.5457 56.7758 21.9343 57.479 22.7351C58.1822 23.536 58.5285 24.5835 58.5285 25.889C58.5273 27.3431 58.118 28.4875 57.2959 29.3357V29.3402ZM46.7536 30.2965L45.605 26.8047H41.605L40.5088 30.2965H38.4668L42.4248 18.3569H44.8738L48.8539 30.2965H46.7536ZM105.125 22.8252C104.483 22.8252 103.959 23.1046 103.556 23.6137C103.222 24.0492 103.02 24.566 102.973 25.1061H107.08C107.105 24.5889 106.972 24.0759 106.699 23.6306C106.355 23.1079 105.83 22.8252 105.125 22.8252ZM43.5956 19.9293H43.5607C43.437 20.4925 43.2446 21.2111 42.9776 22.2001L41.9548 25.3359H45.2551L44.2184 22.2001C44.1064 21.8813 43.8977 21.1683 43.5956 19.9293ZM63.9652 23.0392C63.4813 23.038 63.0126 23.2029 62.6428 23.5044C62.2538 23.8182 61.9859 24.2496 61.8824 24.7288C61.8336 24.9193 61.8097 25.1149 61.8113 25.3111V26.7371C61.8113 27.3611 61.9886 27.8894 62.3862 28.314C62.5767 28.5231 62.8126 28.6889 63.0771 28.7997C63.3415 28.9105 63.6281 28.9635 63.9162 28.955C64.6626 28.955 65.2352 28.6801 65.6492 28.1259C66.0632 27.5718 66.2696 26.8453 66.2696 25.9374C66.2696 25.105 66.0725 24.4168 65.6865 23.8784C65.4936 23.6121 65.2355 23.3961 64.9352 23.2497C64.6348 23.1033 64.3016 23.031 63.9652 23.0392ZM90.175 22.9266C89.3867 22.9266 88.7838 23.2645 88.3721 23.9403C88.0153 24.5035 87.8403 25.185 87.8403 25.9937C87.8403 26.7822 88.0153 27.458 88.3721 28.0212C88.7927 28.697 89.3886 29.0349 90.1599 29.0349C90.9097 29.0349 91.5021 28.697 91.9266 27.9964C92.3058 27.3823 92.4966 26.6769 92.4771 25.9622C92.4771 25.1737 92.301 24.4979 91.9499 23.9415C91.5313 23.2566 90.9424 22.9187 90.175 22.9187V22.9266ZM54.216 23.0392C53.7325 23.0384 53.2643 23.2032 52.8947 23.5044C52.499 23.8162 52.2234 24.2474 52.1122 24.7288C52.0569 24.9187 52.0245 25.1141 52.0154 25.3111V26.7371C52.0008 27.317 52.2146 27.8806 52.6137 28.314C52.8069 28.5237 53.0454 28.6898 53.3124 28.8006C53.5794 28.9113 53.8684 28.964 54.1589 28.955C54.8994 28.955 55.4836 28.6801 55.8965 28.1259C56.3093 27.5718 56.5157 26.8453 56.5157 25.9374C56.5157 25.105 56.3244 24.4168 55.9326 23.8784C55.7407 23.6122 55.4834 23.3963 55.1838 23.2498C54.8842 23.1034 54.5517 23.031 54.216 23.0392Z"
          fill="black"></path>
    <path
      d="M44.6679 9.45386V14.5766L45.2509 14.6295L45.1693 16.9949H44.2993L44.234 15.418H40.4381L40.374 16.9949H39.5052L39.4492 14.6295L39.9495 14.5901C40.2025 14.1669 40.4048 13.7172 40.5524 13.2497C40.746 12.6055 40.8206 11.8654 40.8206 10.997V9.45386H44.6679ZM41.869 11.2752C41.8847 12.0151 41.786 12.7531 41.5763 13.4649C41.4597 13.858 41.2824 14.2995 41.1157 14.5248H43.5017V10.3572H41.869V11.2752Z"
      fill="black"></path>
    <path
      d="M50.3241 13.2404C50.3241 14.8421 49.1579 15.5574 48.0081 15.5574C46.7253 15.5574 45.748 14.7081 45.748 13.3125C45.748 11.8809 46.7206 11.0034 48.0804 11.0034C49.4262 10.9978 50.3241 11.9102 50.3241 13.2404ZM46.9247 13.2855C46.9247 14.1258 47.3504 14.761 48.0454 14.761C48.6938 14.761 49.1474 14.1438 49.1474 13.2675C49.1474 12.5916 48.8326 11.8032 48.0547 11.8032C47.2489 11.8032 46.9247 12.5556 46.9247 13.2798V13.2855Z"
      fill="black"></path>
    <path
      d="M54.5749 15.319C54.167 15.4755 53.731 15.552 53.2921 15.5443C51.8834 15.5443 50.9668 14.6769 50.9668 13.3253C50.9668 12.0198 51.8927 10.9993 53.4764 10.9993C53.8546 10.9967 54.2296 11.0668 54.5796 11.2055L54.3755 12.0288C54.1049 11.911 53.8105 11.8529 53.5137 11.8588C52.6426 11.8588 52.1248 12.476 52.1341 13.2724C52.1341 14.1667 52.7359 14.6769 53.5137 14.6769C53.8224 14.6807 54.1285 14.6228 54.4128 14.5069L54.5749 15.319Z"
      fill="black"></path>
    <path
      d="M58.8953 11.144V11.9325H57.4958V15.4243H56.4463V11.9325H55.0469V11.144H58.8953Z"
      fill="black"></path>
    <path
      d="M60.4572 11.144L61.2735 13.4632C61.3656 13.7324 61.4589 14.0726 61.5231 14.2979H61.5475C61.6222 14.0726 61.705 13.7347 61.7889 13.4542L62.4886 11.144H63.712L62.5819 14.0906C61.9604 15.7182 61.544 16.4312 61.0064 16.8784C60.6751 17.1755 60.2591 17.3697 59.8123 17.436L59.5581 16.5067C59.7985 16.4463 60.0249 16.3424 60.2251 16.2003C60.4864 16.0223 60.6993 15.7857 60.8455 15.511C60.8866 15.4521 60.9122 15.3845 60.9201 15.3139C60.9156 15.2457 60.8931 15.1798 60.8548 15.1224L59.207 11.144H60.4572Z"
      fill="black"></path>
    <path d="M68.3419 11.144V15.4243H67.1758V11.9325H65.5431V15.4243H64.377V11.144H68.3419Z"
          fill="black"></path>
    <path
      d="M70.674 11.144V12.721H72.4233V11.144H73.5894V15.4243H72.4233V13.6221H70.674V15.4243H69.5078V11.144H70.674Z"
      fill="black"></path>
    <path
      d="M79.0741 13.2404C79.0741 14.8421 77.9079 15.5574 76.7581 15.5574C75.4753 15.5574 74.498 14.7081 74.498 13.3125C74.498 11.8809 75.4706 11.0034 76.8304 11.0034C78.175 10.9978 79.0741 11.9102 79.0741 13.2404ZM75.6747 13.2855C75.6747 14.1258 76.1004 14.761 76.7954 14.761C77.4438 14.761 77.8974 14.1438 77.8974 13.2675C77.8974 12.5916 77.5826 11.8032 76.8047 11.8032C75.9977 11.8032 75.6747 12.5556 75.6747 13.2798V13.2855Z"
      fill="black"></path>
    <path
      d="M81.8691 11.1495C82.4203 11.0765 82.9758 11.0388 83.5321 11.0369C84.2925 11.0369 85.6872 11.136 85.6872 12.1373C85.6872 12.6926 85.2511 13.0046 84.7846 13.1038V13.1274C85.4843 13.2254 85.9029 13.578 85.9029 14.1918C85.9029 15.3903 84.2423 15.5074 83.3374 15.5074C82.7718 15.5074 82.2213 15.4714 81.8715 15.4444L81.8691 11.1495ZM83.0353 14.7911C83.2172 14.8122 83.4003 14.8212 83.5834 14.8181C84.1012 14.8181 84.7274 14.6784 84.7274 14.1682C84.7274 13.676 84.2237 13.5093 83.51 13.5093H83.0353V14.7911ZM83.0353 12.8334H83.5018C84.0849 12.8334 84.5665 12.6847 84.5665 12.2702C84.5665 11.9211 84.2551 11.7397 83.5799 11.7397C83.3979 11.7403 83.2163 11.7543 83.0365 11.7814L83.0353 12.8334Z"
      fill="black"></path>
  </g>
  <defs>
    <clipPath id="clip0_6389_12891">
      <rect width="121" height="41" fill="white"
            transform="translate(0.671875 0.625)"></rect>
    </clipPath>
  </defs>
</svg>